PathFileType	4	(X/Y/Z)	C:/Users/opensim2020/Desktop/walking_exp_matlab/subject02_walking07_straight_04.trc	
DataRate	CameraRate	NumFrames	NumMarkers	Units	OrigDataRate	OrigDataStartFrame	OrigNumFrames	
100.00	100.00	5	50	mm	100.00	2746	207	
Frame#	Time	LFHD			RFHD			LBHD			RBHD			C7			T10			CLAV			STRN			RBAK			LSHO			LUPA			LELB			LFRM			LWRA			LWRB			LFIN			RSHO			RUPA			RELB			RFRM			RWRA			RWRB			RFIN			LASI			RASI			LPSI			RPSI			LTHI			LKNE			LTIB			LANK			LHEE			LTOE			RTHI			RKNE			RTIB			RANK			RHEE			RTOE			*39			*40			*41			*42			*43			*44			*45			*46			*47			*48			*49			
		X1	Y1	Z1	X2	Y2	Z2	X3	Y3	Z3	X4	Y4	Z4	X5	Y5	Z5	X6	Y6	Z6	X7	Y7	Z7	X8	Y8	Z8	X9	Y9	Z9	X10	Y10	Z10	X11	Y11	Z11	X12	Y12	Z12	X13	Y13	Z13	X14	Y14	Z14	X15	Y15	Z15	X16	Y16	Z16	X17	Y17	Z17	X18	Y18	Z18	X19	Y19	Z19	X20	Y20	Z20	X21	Y21	Z21	X22	Y22	Z22	X23	Y23	Z23	X24	Y24	Z24	X25	Y25	Z25	X26	Y26	Z26	X27	Y27	Z27	X28	Y28	Z28	X29	Y29	Z29	X30	Y30	Z30	X31	Y31	Z31	X32	Y32	Z32	X33	Y33	Z33	X34	Y34	Z34	X35	Y35	Z35	X36	Y36	Z36	X37	Y37	Z37	X38	Y38	Z38	X39	Y39	Z39	X40	Y40	Z40	X41	Y41	Z41	X42	Y42	Z42	X43	Y43	Z43	X44	Y44	Z44	X45	Y45	Z45	X46	Y46	Z46	X47	Y47	Z47	X48	Y48	Z48	X49	Y49	Z49	X50	Y50	Z50	

26	0.250	-964.07477	490.96808	1724.95325	-1107.45544	501.79337	1712.72009	-949.88403	631.70209	1672.21338	-1092.36621	654.64984	1660.61853	-1033.23059	705.56781	1529.12842	-1051.34863	756.25555	1252.55750	-1020.05524	565.95392	1459.54895	-1045.27747	512.58929	1290.50488	-1110.31213	760.95056	1358.17004	-855.35339	649.80853	1491.85364	-782.26508	719.87231	1306.06958	-773.49664	763.18018	1173.77283	-752.91571	802.57568	1049.94336	-762.08386	790.28662	909.84698	-742.96484	838.37622	932.01208	-733.19116	845.84265	865.50812	-1215.52759	624.94696	1509.94189	-1321.82373	607.92664	1329.02954	-1355.40979	546.99115	1196.49719	-1376.88135	472.76959	1102.32141	-1358.00061	380.47610	1004.24438	-1397.00574	417.49554	985.85645	-1398.19653	357.21939	945.51825	-934.21051	522.35455	989.94202	-1188.80505	542.36700	976.34021	-997.73828	735.96460	1034.89294	-1111.81494	749.99274	1038.40234	-855.40680	527.13367	688.45026	-880.72339	483.64816	495.26190	-879.83777	488.76849	301.51251	-893.75238	417.67688	86.59351	-950.57239	434.57309	50.80683	-861.17474	264.97534	86.20802	-1236.56494	655.78693	673.34052	-1191.59912	686.22766	464.91196	-1191.58850	755.65637	288.55725	-1147.97559	799.23114	99.95574	-1089.57788	835.94049	47.08835	-1176.28528	653.93372	40.85983	-1045.65857	584.59296	1810.15503	-3357.48633	2845.91870	1034.13916																											 
27	0.260	-963.28033	482.39139	1723.95825	-1106.78259	493.13428	1711.66736	-949.24652	622.87982	1670.78809	-1092.22839	645.92664	1659.25208	-1032.53162	696.30713	1527.68567	-1050.25659	747.33539	1251.23645	-1019.36737	556.61230	1458.08325	-1044.82214	503.43704	1289.00220	-1109.30408	751.94824	1356.78979	-854.73126	640.50250	1490.49866	-782.29761	712.63037	1305.57898	-773.79034	757.23053	1173.77039	-753.25775	798.18719	1050.40637	-761.74982	787.50488	910.22400	-743.45374	835.81818	933.04053	-733.50806	844.13055	866.75629	-1214.91492	615.98785	1508.39783	-1321.24976	598.03430	1327.67798	-1355.15674	535.64398	1195.85193	-1376.20728	459.88541	1102.73523	-1357.28088	366.06641	1006.31055	-1396.30042	402.72476	987.21423	-1397.41675	341.74408	948.02246	-934.14917	512.80170	987.87689	-1188.83313	534.41815	975.13074	-996.58020	726.81866	1033.20032	-1110.43506	741.86353	1036.95776	-854.71771	519.61200	686.64337	-880.19360	473.56024	493.75436	-877.39514	471.32141	300.17313	-890.36316	392.70895	87.74484	-946.35168	409.24612	51.26577	-860.99823	239.26913	91.52291	-1236.38599	650.42987	672.61639	-1191.28308	682.61554	464.29916	-1191.23743	753.74390	288.69293	-1147.74768	798.85278	100.37360	-1089.13879	835.89874	47.66081	-1176.40723	653.97717	40.80949	-1045.01721	576.19348	1808.99146	-3360.17725	2845.20508	1033.99353																											 
28	0.270	-962.76294	473.54327	1723.08679	-1106.02051	484.39270	1710.56616	-948.47925	614.00629	1669.30066	-1091.15234	636.92065	1657.56592	-1031.64331	686.96350	1526.21631	-1049.05505	738.35309	1249.90686	-1018.64447	547.13715	1456.41492	-1044.27600	494.25787	1287.41223	-1108.21472	742.92169	1355.38635	-853.91064	631.00830	1489.02917	-782.24207	704.85358	1304.89917	-773.82587	750.81079	1173.66357	-753.59491	793.45605	1050.74951	-761.60010	784.28827	910.30939	-743.97858	832.35388	933.73218	-733.87933	841.78101	867.88770	-1214.17712	607.05249	1506.97083	-1320.45581	588.29578	1326.31787	-1354.95898	524.56042	1195.26392	-1375.57800	447.37482	1103.04626	-1356.70056	351.89288	1008.41290	-1395.38892	388.41238	988.38885	-1396.48694	326.75903	950.37042	-934.11908	503.11755	985.86414	-1188.84265	526.46930	973.79095	-995.35303	717.72223	1031.49927	-1108.97693	733.57874	1035.35620	-854.08386	511.25504	685.17920	-879.48840	463.36484	492.33551	-874.64905	454.54175	299.24734	-886.89362	369.14200	89.35619	-942.30676	385.94785	51.97567	-861.09564	215.13274	96.36726	-1236.17407	644.93262	671.88202	-1190.94116	678.90778	463.69537	-1190.91296	751.82312	288.89124	-1147.46021	798.48096	100.86746	-1088.71313	835.76093	48.05086	-1176.57898	654.03540	40.86415	-1044.42200	567.77429	1807.52466	-3357.58740	2845.77515	1034.20105																											 
29	0.280	-961.81506	464.86639	1721.89832	-1105.15234	475.64600	1709.43848	-947.49341	605.02441	1667.75098	-1090.11121	627.98273	1655.84375	-1030.61755	677.53503	1524.67236	-1047.78748	729.21808	1248.52686	-1017.83185	537.64215	1454.82800	-1043.70776	485.01877	1285.78857	-1106.86182	733.81439	1353.87866	-853.04706	621.29297	1487.51099	-781.91968	696.88794	1304.02686	-774.06042	743.88428	1173.17480	-754.17645	788.07520	1050.98938	-761.41705	780.54120	910.31219	-744.30975	828.49945	934.50916	-734.18079	838.78339	868.61688	-1213.30566	597.86401	1505.28625	-1319.69250	578.62756	1324.85828	-1354.17383	513.71375	1194.20972	-1374.76709	435.16739	1103.21912	-1355.48914	338.43381	1009.96899	-1394.31238	374.50552	989.41620	-1395.51270	312.17361	952.60059	-934.24060	493.30060	984.03131	-1188.92517	518.42188	972.41132	-994.13495	708.83813	1029.89478	-1107.40271	725.10034	1033.67651	-853.24219	502.69775	683.51636	-878.65063	453.09241	490.99841	-871.92072	438.65869	298.53564	-883.84705	347.45166	90.97330	-938.17230	364.36346	52.56909	-861.06274	192.87621	100.58269	-1235.89355	639.34418	671.11377	-1190.60608	674.96472	463.09705	-1190.61951	749.78290	289.15811	-1147.32043	798.11139	101.48047	-1088.54199	835.65137	48.82191	-1176.73608	653.94489	40.72996	-1043.51379	559.34137	1806.10034	-3357.37866	2845.88379	1034.03955																											 
30	0.290	-960.81036	456.02158	1720.86951	-1104.23425	466.80176	1708.32043	-946.59241	595.93536	1666.29553	-1089.02222	618.91699	1654.18567	-1029.46826	668.09576	1523.14319	-1046.43433	719.97766	1247.14661	-1016.88580	528.11932	1453.21106	-1043.08960	475.75781	1284.15979	-1105.48926	724.71356	1352.43872	-851.94574	611.45679	1485.97021	-781.49005	688.30627	1302.99646	-773.83685	736.62378	1172.67871	-753.98535	782.12592	1050.94019	-761.29938	775.85083	910.21649	-744.67871	823.63287	934.95807	-734.47626	835.23535	869.23853	-1212.32666	588.67010	1503.71655	-1317.97632	569.17657	1322.99512	-1353.58411	503.13773	1193.35791	-1373.84009	423.32248	1103.24402	-1354.66077	325.12070	1011.67139	-1393.02942	361.07806	990.23859	-1394.37329	298.19720	954.64648	-934.32776	483.31232	982.45831	-1189.28552	510.79297	970.71967	-993.10767	700.34564	1028.51575	-1105.76941	716.43835	1031.90198	-852.58313	493.12820	682.28174	-877.81134	442.64081	489.71790	-869.33258	423.62637	297.89874	-880.73529	327.50644	92.66711	-935.25421	344.26749	53.57501	-860.76160	172.62256	104.06187	-1235.24170	633.68878	670.28638	-1190.24023	670.72058	462.49774	-1190.28906	747.52258	289.43478	-1147.17200	797.69531	102.19534	-1088.28113	835.45203	49.54174	-1176.71753	653.99811	40.46802	-1042.58386	550.86407	1804.82678	-3357.32080	2845.90723	1034.09656																											 
